<svg width="228" height="200" viewBox="0 0 228 200" fill="none" xmlns="http://www.w3.org/2000/svg">
<g clip-path="url(#clip0_589_24274)">
<mask id="mask0_589_24274" style="mask-type:luminance" maskUnits="userSpaceOnUse" x="5" y="32" width="219" height="133">
<path d="M5 32.9971H223.364V164.015H5V32.9971Z" fill="white"/>
</mask>
<g mask="url(#mask0_589_24274)">
<path fill-rule="evenodd" clip-rule="evenodd" d="M114.182 32.9971C85.0667 32.9971 66.8697 47.5546 59.5909 76.6698C70.5091 62.1122 83.247 56.6531 97.8045 60.2925C106.11 62.367 112.047 68.3962 118.618 75.0644C129.322 85.93 141.712 98.5062 168.773 98.5062C197.888 98.5062 216.085 83.9486 223.364 54.8334C212.445 69.391 199.708 74.8501 185.15 71.2107C176.844 69.1363 170.908 63.107 164.337 56.4388C153.633 45.5732 141.243 32.9971 114.182 32.9971ZM59.5909 98.5062C30.4758 98.5062 12.2788 113.064 5 142.179C15.9182 127.621 28.6561 122.162 43.2136 125.802C51.5195 127.88 57.4558 133.905 64.0269 140.574C74.7308 151.439 87.1209 164.015 114.182 164.015C143.297 164.015 161.494 149.458 168.773 120.343C157.855 134.9 145.117 140.359 130.559 136.72C122.253 134.645 116.317 128.616 109.746 121.948C99.0419 111.082 86.6518 98.5062 59.5909 98.5062Z" fill="black"/>
</g>
</g>
<defs>
<clipPath id="clip0_589_24274">
<rect width="218.364" height="133.444" fill="white" transform="translate(5 33)"/>
</clipPath>
</defs>
</svg>
