<svg width="400" height="200" viewBox="0 0 400 200" fill="none" xmlns="http://www.w3.org/2000/svg">
<path d="M199.07 77.8002C184.26 77.8002 173.581 87.4594 173.581 101.948C173.581 116.437 185.601 126.096 200.412 126.096C209.36 126.096 217.248 122.554 222.131 116.584L211.869 110.655C209.159 113.62 205.04 115.35 200.412 115.35C193.986 115.35 188.526 111.996 186.5 106.63H224.09C224.385 105.128 224.56 103.571 224.56 101.935C224.56 87.4594 213.881 77.8002 199.07 77.8002ZM186.379 97.2527C188.056 91.8999 192.644 88.5326 199.057 88.5326C205.483 88.5326 210.071 91.8999 211.734 97.2527H186.379ZM343.528 77.8002C328.718 77.8002 318.039 87.4594 318.039 101.948C318.039 116.437 330.059 126.096 344.87 126.096C353.818 126.096 361.706 122.554 366.589 116.584L356.327 110.655C353.617 113.62 349.498 115.35 344.87 115.35C338.444 115.35 332.984 111.996 330.958 106.63H368.548C368.843 105.128 369.018 103.571 369.018 101.935C369.018 87.4594 358.339 77.8002 343.528 77.8002ZM330.851 97.2527C332.528 91.8999 337.116 88.5326 343.528 88.5326C349.954 88.5326 354.542 91.8999 356.206 97.2527H330.851ZM278.49 101.948C278.49 109.997 283.749 115.364 291.905 115.364C297.433 115.364 301.578 112.855 303.711 108.763L314.014 114.706C309.748 121.816 301.752 126.096 291.905 126.096C277.081 126.096 266.416 116.437 266.416 101.948C266.416 87.4594 277.095 77.8002 291.905 77.8002C301.752 77.8002 309.735 82.0798 314.014 89.19L303.711 95.1331C301.578 91.0413 297.433 88.5326 291.905 88.5326C283.762 88.5326 278.49 93.8988 278.49 101.948ZM389.141 63.0432V124.754H377.067V63.0432H389.141ZM59.4284 56.3354L108.999 142.195H9.85815L59.4284 56.3354ZM183.361 63.0432L146.186 127.438L109.012 63.0432H122.951L146.186 103.29L169.422 63.0432H183.361ZM262.391 79.1418V92.1414C261.05 91.7523 259.628 91.484 258.098 91.484C250.304 91.484 244.683 96.8502 244.683 104.9V124.754H232.609V79.1418H244.683V91.484C244.683 84.669 252.611 79.1418 262.391 79.1418Z" fill="black"/>
</svg>
