<svg width="400" height="200" viewBox="0 0 400 200" fill="none" xmlns="http://www.w3.org/2000/svg">
<g clip-path="url(#clip0_589_24273)">
<path d="M119.053 66.7446C117.896 66.1779 117.398 67.258 116.722 67.8066C116.49 67.9836 116.295 68.2137 116.099 68.4261C114.408 70.2314 112.433 71.4178 109.853 71.276C106.08 71.0634 102.859 72.2498 100.012 75.1353C99.4066 71.5771 97.3959 69.4525 94.3349 68.0897C92.7336 67.3815 91.1141 66.6733 89.9928 65.1331C89.2098 64.036 88.9963 62.8144 88.6048 61.6106C88.3555 60.8849 88.1064 60.1411 87.27 60.0172C86.3624 59.8757 86.0065 60.6366 85.6505 61.2742C84.2269 63.8766 83.6753 66.7444 83.7286 69.6476C83.8531 76.18 86.6115 81.3842 92.0924 85.0841C92.7153 85.5091 92.8754 85.9336 92.6797 86.5536C92.3059 87.8282 91.861 89.0672 91.4697 90.3418C91.2204 91.1563 90.8466 91.3333 89.9748 90.9789C86.9673 89.7224 84.369 87.8633 82.0734 85.6153C78.1762 81.8447 74.6527 77.6846 70.2573 74.4273C69.2252 73.666 68.1929 72.9582 67.1251 72.2851C62.6405 67.9306 67.7124 64.3544 68.8869 63.9299C70.1147 63.4873 69.314 61.9646 65.3455 61.9826C61.377 62.0001 57.7468 63.3279 53.1201 65.0982C52.4439 65.3638 51.7318 65.5583 51.0023 65.7176C46.8026 64.9212 42.4426 64.7438 37.887 65.2575C29.3094 66.2132 22.4584 70.2672 17.4222 77.189C11.3719 85.5091 9.94829 94.9619 11.6923 104.822C13.5253 115.213 18.8282 123.817 26.9786 130.544C35.4317 137.519 45.1658 140.935 56.2702 140.28C63.0148 139.891 70.5245 138.988 78.9951 131.819C81.1304 132.881 83.3728 133.305 87.0922 133.624C89.9573 133.89 92.7157 133.483 94.851 133.04C98.1966 132.332 97.9653 129.234 96.7553 128.668C86.95 124.101 89.103 125.959 87.1456 124.454C92.1283 118.56 99.6382 112.434 102.574 92.5898C102.806 91.0144 102.61 90.0229 102.574 88.7484C102.557 87.9696 102.735 87.6689 103.624 87.5801C106.08 87.2968 108.465 86.6243 110.654 85.4205C117.007 81.9509 119.569 76.2507 120.174 69.4175C120.263 68.373 120.156 67.2929 119.053 66.7446ZM63.6909 128.243C54.1881 120.772 49.5793 118.312 47.675 118.418C45.8954 118.524 46.2158 120.56 46.6071 121.888C47.0165 123.197 47.5504 124.101 48.2977 125.251C48.8137 126.012 49.1699 127.145 47.7818 127.995C44.7209 129.889 39.3999 127.358 39.1507 127.234C32.9581 123.587 27.7795 118.772 24.1313 112.187C20.6077 105.849 18.5614 99.0514 18.2231 91.7934C18.1341 90.041 18.6502 89.421 20.3942 89.1028C22.6898 88.6778 25.0567 88.589 27.3523 88.9254C37.0511 90.3418 45.3081 94.6788 52.2304 101.547C56.181 105.459 59.1706 110.133 62.2494 114.7C65.5237 119.551 69.0472 124.171 73.5318 127.959C75.1155 129.287 76.379 130.296 77.589 131.04C73.9411 131.447 67.855 131.536 63.6909 128.243ZM68.2465 98.9452C68.2465 98.1662 68.8695 97.5468 69.6527 97.5468C69.8306 97.5468 69.9907 97.5818 70.1332 97.6348C70.329 97.7059 70.507 97.8122 70.6492 97.9712C70.8985 98.2193 71.0407 98.5731 71.0407 98.945C71.0407 99.7239 70.418 100.343 69.6352 100.343C68.8524 100.343 68.2465 99.7241 68.2465 98.9452ZM82.3941 106.203C81.4866 106.575 80.579 106.893 79.707 106.929C78.3546 107 76.8775 106.451 76.0768 105.778C74.8312 104.734 73.9413 104.15 73.5677 102.326C73.4074 101.547 73.4964 100.344 73.639 99.6534C73.9592 98.1662 73.6033 97.2105 72.5535 96.3428C71.6992 95.6346 70.6136 95.4401 69.4213 95.4401C68.9763 95.4401 68.5673 95.2452 68.2646 95.0859C67.7662 94.8382 67.3573 94.2185 67.7486 93.4573C67.8731 93.2098 68.4783 92.6076 68.6208 92.5016C70.2402 91.5808 72.1087 91.882 73.8349 92.5723C75.4366 93.2272 76.6467 94.4311 78.3905 96.1304C80.1701 98.1837 80.4902 98.7507 81.5047 100.29C82.3057 101.494 83.0353 102.733 83.5335 104.15C83.836 105.035 83.4441 105.761 82.3941 106.203Z" fill="black"/>
<path d="M243.104 88.8086C240.586 88.8086 238.048 89.3611 236.4 90.9167C236.257 91.0498 236.124 91.193 235.991 91.3364H234.783V88.8086H228.162V128.598H234.783V103.873C234.783 101.325 235.336 98.7664 236.871 97.0982C238.406 95.4199 240.76 94.8263 243.104 94.8263C245.437 94.8263 247.801 95.4199 249.336 97.0982C250.871 98.7664 251.424 101.325 251.424 103.873C251.424 106.411 250.871 108.97 249.336 110.638C247.801 112.316 245.437 112.91 243.104 112.91H239.338V118.927H243.104C247.003 118.927 250.922 117.934 253.481 115.151C256.039 112.367 256.95 108.11 256.95 103.873C256.95 99.6359 256.039 95.3684 253.481 92.5849C250.922 89.8012 247.003 88.8086 243.104 88.8086ZM150.609 104.917C150.609 107.465 150.057 110.023 148.521 111.692C146.986 113.36 144.633 113.964 142.289 113.964C139.945 113.964 137.592 113.36 136.057 111.692C134.521 110.023 133.969 107.465 133.969 104.917C133.969 102.379 134.521 99.8101 136.057 98.1419C137.592 96.4737 139.945 95.8801 142.289 95.8801H146.055V89.8626H142.289C138.39 89.8626 134.47 90.8553 131.912 93.6389C129.353 96.4226 128.442 100.68 128.442 104.917C128.442 109.154 129.353 113.421 131.912 116.205C134.47 118.988 138.39 119.981 142.289 119.981C144.807 119.981 147.334 119.418 148.992 117.873C149.135 117.74 149.268 117.597 149.391 117.453H150.609V119.981H157.231V80.1815H150.609V104.917ZM176.071 88.8086C172.019 88.8086 167.945 89.8422 165.284 92.718C162.634 95.5937 161.682 100.005 161.682 104.395C161.682 108.775 162.634 113.196 165.284 116.072C167.945 118.948 172.018 119.981 176.071 119.981C180.124 119.981 184.197 118.948 186.858 116.072C188.219 114.588 189.14 112.705 189.713 110.617H183.163C182.979 110.894 182.774 111.16 182.549 111.405C180.953 113.135 178.507 113.749 176.072 113.749C173.646 113.749 171.2 113.135 169.604 111.405C168.007 109.676 167.434 107.025 167.434 104.395C167.434 101.765 168.007 99.1144 169.604 97.385C171.2 95.6553 173.646 95.0414 176.072 95.0414C178.507 95.0414 180.953 95.6553 182.549 97.385C183.655 98.5824 184.269 100.21 184.545 101.98H172.837V106.81H190.471V104.395C190.471 100.005 189.519 95.5939 186.858 92.7182C184.207 89.8424 180.124 88.8086 176.071 88.8086ZM209.311 88.8086C205.268 88.8086 201.185 89.8422 198.535 92.718C195.874 95.5937 194.922 100.005 194.922 104.395C194.922 108.775 195.874 113.196 198.535 116.072C201.185 118.948 205.268 119.981 209.311 119.981C213.364 119.981 217.437 118.948 220.098 116.072C221.469 114.588 222.38 112.705 222.953 110.617H216.403C216.219 110.894 216.014 111.16 215.789 111.405C214.193 113.135 211.747 113.749 209.321 113.749C206.886 113.749 204.44 113.135 202.843 111.405C201.247 109.676 200.674 107.025 200.674 104.395C200.674 101.765 201.247 99.1144 202.843 97.385C204.44 95.6553 206.886 95.0414 209.321 95.0414C211.747 95.0414 214.193 95.6553 215.789 97.385C216.895 98.5824 217.509 100.21 217.785 101.98H206.077V106.81H223.71V104.395C223.71 100.005 222.759 95.5939 220.098 92.7182C217.447 89.8424 213.364 88.8086 209.311 88.8086ZM286.577 103.883C283.927 102.184 279.844 101.581 275.801 101.581H275.944C274.215 101.581 272.475 101.345 271.339 100.68C270.203 100.025 269.804 99.0118 269.804 98.009C269.804 97.0063 270.203 95.993 271.339 95.3381C272.475 94.6728 274.215 94.4375 275.944 94.4375C277.674 94.4375 279.414 94.6831 280.539 95.3381C281.675 95.993 282.085 97.0063 282.085 98.009H288.829C288.829 95.4199 287.959 92.8204 285.554 91.1217C283.149 89.4227 279.465 88.8088 275.801 88.8088C272.137 88.8088 268.453 89.4227 266.048 91.1217C263.643 92.8206 262.784 95.4199 262.784 98.009C262.784 100.598 263.643 103.208 266.048 104.896C268.453 106.595 272.137 107.209 275.801 107.209C277.705 107.209 279.792 107.445 281.041 108.1C282.3 108.765 282.75 109.778 282.75 110.781C282.75 111.784 282.299 112.797 281.041 113.452C279.792 114.107 277.868 114.342 275.955 114.342C274.051 114.342 272.127 114.107 270.868 113.452C269.62 112.787 269.169 111.784 269.169 110.781H261.402C261.402 113.36 262.354 115.969 265.014 117.668C267.675 119.367 271.748 119.971 275.801 119.971C279.844 119.971 283.927 119.367 286.577 117.668C289.238 115.969 290.19 113.36 290.19 110.781C290.19 108.192 289.238 105.582 286.577 103.883ZM309.041 88.8086C304.988 88.8086 300.915 89.8422 298.254 92.718C295.604 95.5937 294.642 100.005 294.642 104.395C294.642 108.775 295.604 113.196 298.254 116.072C300.915 118.948 304.988 119.981 309.041 119.981C313.094 119.981 317.167 118.948 319.827 116.072C321.188 114.588 322.11 112.705 322.672 110.617H316.133C315.949 110.894 315.744 111.16 315.519 111.405C313.922 113.135 311.476 113.749 309.041 113.749C306.615 113.749 304.159 113.135 302.573 111.405C300.976 109.676 300.403 107.025 300.403 104.395C300.403 101.765 300.976 99.1144 302.573 97.385C304.159 95.6553 306.615 95.0414 309.041 95.0414C311.476 95.0414 313.922 95.6553 315.519 97.385C316.624 98.5824 317.238 100.21 317.514 101.98H305.797V106.81H323.44V104.395C323.44 100.005 322.488 95.5939 319.827 92.7182C317.167 89.8424 313.094 88.8086 309.041 88.8086ZM342.281 88.8086C338.228 88.8086 334.155 89.8422 331.494 92.718C328.844 95.5937 327.882 100.005 327.882 104.395C327.882 108.775 328.844 113.196 331.494 116.072C334.155 118.948 338.228 119.981 342.281 119.981C346.333 119.981 350.407 118.948 353.067 116.072C354.428 114.588 355.35 112.705 355.923 110.617H349.373C349.189 110.894 348.984 111.16 348.759 111.405C347.163 113.135 344.717 113.749 342.281 113.749C339.856 113.749 337.399 113.135 335.813 111.405C334.217 109.676 333.643 107.025 333.643 104.395C333.643 101.765 334.217 99.1144 335.813 97.385C337.399 95.6553 339.856 95.0414 342.281 95.0414C344.717 95.0414 347.163 95.6553 348.759 97.385C349.864 98.5824 350.478 100.21 350.755 101.98H339.047V106.81H356.68V104.395C356.68 100.005 355.728 95.5939 353.068 92.7182C350.407 89.8424 346.334 88.8086 342.281 88.8086ZM361.122 78.7896H367.743V119.981H361.122V78.7896ZM381.712 90.1902L370.844 103.464L381.712 119.981H389.92L379.051 103.464L389.92 90.1902H381.712Z" fill="black"/>
</g>
<defs>
<clipPath id="clip0_589_24273">
<rect width="378.92" height="80.3595" fill="white" transform="translate(11 60)"/>
</clipPath>
</defs>
</svg>
