<svg width="252" height="200" viewBox="0 0 252 200" fill="none" xmlns="http://www.w3.org/2000/svg">
<path d="M76.5297 81.3618C76.5297 84.1681 76.8331 86.4435 77.364 88.1121C77.9707 89.7807 78.7292 91.601 79.791 93.573C80.1703 94.1798 80.322 94.7865 80.322 95.3175C80.322 96.0759 79.8669 96.8344 78.8809 97.5928L74.1026 100.778C73.42 101.233 72.7374 101.461 72.1306 101.461C71.3722 101.461 70.6137 101.082 69.8552 100.399C68.7934 99.2614 67.8832 98.0479 67.1248 96.8344C66.3663 95.545 65.6079 94.1039 64.7736 92.3595C58.8576 99.3373 51.4247 102.826 42.4749 102.826C36.1038 102.826 31.0222 101.006 27.3057 97.3653C23.5893 93.7247 21.6931 88.8706 21.6931 82.8029C21.6931 76.356 23.9685 71.1226 28.5951 67.1786C33.2217 63.2347 39.3652 61.2627 47.1773 61.2627C49.7561 61.2627 52.4107 61.4902 55.217 61.8694C58.0233 62.2487 60.9054 62.8554 63.9393 63.538V58.0013C63.9393 52.237 62.7257 48.2172 60.3745 45.866C57.9474 43.5147 53.8518 42.377 48.0116 42.377C45.357 42.377 42.6266 42.6804 39.8203 43.363C37.014 44.0457 34.2835 44.88 31.6289 45.9418C30.4154 46.4727 29.5052 46.7761 28.9743 46.9278C28.4434 47.0795 28.0642 47.1553 27.7608 47.1553C26.6989 47.1553 26.168 46.3969 26.168 44.8041V41.0877C26.168 39.8741 26.3197 38.964 26.6989 38.4331C27.0782 37.9021 27.7608 37.3712 28.8226 36.8403C31.4772 35.4751 34.6628 34.3374 38.3792 33.4272C42.0956 32.4412 46.0396 31.9862 50.2112 31.9862C59.2368 31.9862 65.8354 34.034 70.0828 38.1297C74.2543 42.2254 76.378 48.4447 76.378 56.7878V81.3618H76.5297ZM45.7362 92.8904C48.2392 92.8904 50.8179 92.4353 53.5484 91.5252C56.2788 90.615 58.7059 88.9464 60.7537 86.671C61.9673 85.23 62.8774 83.6372 63.3325 81.8169C63.7876 79.9966 64.091 77.7971 64.091 75.2183V72.0328C61.8914 71.5019 59.5402 71.0468 57.1131 70.7434C54.6861 70.44 52.3348 70.2883 49.9836 70.2883C44.9019 70.2883 41.1855 71.2743 38.6826 73.3222C36.1797 75.37 34.9661 78.2521 34.9661 82.0444C34.9661 85.6092 35.8763 88.2638 37.7724 90.0841C39.5927 91.9802 42.2473 92.8904 45.7362 92.8904ZM106.64 101.082C105.275 101.082 104.365 100.854 103.758 100.323C103.152 99.8682 102.621 98.8064 102.166 97.3653L84.3418 38.7364C83.8867 37.2195 83.6592 36.2335 83.6592 35.7026C83.6592 34.4891 84.2659 33.8065 85.4795 33.8065H92.9124C94.3534 33.8065 95.3394 34.034 95.8704 34.5649C96.4771 35.02 96.9322 36.0818 97.3873 37.5229L110.129 87.7329L121.961 37.5229C122.341 36.006 122.796 35.02 123.402 34.5649C124.009 34.1098 125.071 33.8065 126.436 33.8065H132.504C133.945 33.8065 134.931 34.034 135.538 34.5649C136.145 35.02 136.675 36.0818 136.979 37.5229L148.962 88.3396L162.084 37.5229C162.539 36.006 163.07 35.02 163.601 34.5649C164.207 34.1098 165.193 33.8065 166.559 33.8065H173.612C174.826 33.8065 175.508 34.4132 175.508 35.7026C175.508 36.0818 175.433 36.4611 175.357 36.9161C175.281 37.3712 175.129 37.978 174.826 38.8123L156.547 97.4411C156.092 98.9581 155.561 99.9441 154.954 100.399C154.348 100.854 153.362 101.158 152.072 101.158H145.549C144.108 101.158 143.122 100.93 142.516 100.399C141.909 99.8682 141.378 98.8822 141.074 97.3653L129.318 48.4447L117.638 97.2895C117.259 98.8064 116.804 99.7924 116.197 100.323C115.59 100.854 114.528 101.082 113.163 101.082H106.64ZM204.102 103.13C200.158 103.13 196.214 102.675 192.422 101.764C188.63 100.854 185.672 99.8682 183.7 98.7305C182.486 98.0479 181.652 97.2894 181.349 96.6068C181.045 95.9242 180.894 95.1658 180.894 94.4831V90.615C180.894 89.0222 181.5 88.2638 182.638 88.2638C183.093 88.2638 183.548 88.3396 184.003 88.4913C184.458 88.643 185.141 88.9464 185.899 89.2498C188.478 90.3875 191.284 91.2976 194.242 91.9044C197.276 92.5112 200.234 92.8145 203.268 92.8145C208.046 92.8145 211.763 91.9802 214.342 90.3116C216.92 88.643 218.286 86.216 218.286 83.1063C218.286 80.9826 217.603 79.2381 216.238 77.7971C214.873 76.356 212.294 75.0666 208.577 73.8531L197.58 70.44C192.043 68.6956 187.947 66.1168 185.444 62.7037C182.941 59.3665 181.652 55.6501 181.652 51.7061C181.652 48.5206 182.335 45.7143 183.7 43.2872C185.065 40.8601 186.885 38.7364 189.161 37.0678C191.436 35.3234 194.015 34.034 197.049 33.1239C200.083 32.2137 203.268 31.8345 206.605 31.8345C208.274 31.8345 210.018 31.9103 211.687 32.1379C213.431 32.3654 215.024 32.6688 216.617 32.9722C218.134 33.3514 219.575 33.7306 220.94 34.1857C222.305 34.6408 223.367 35.0958 224.126 35.5509C225.188 36.1577 225.946 36.7645 226.401 37.4471C226.856 38.0538 227.084 38.8881 227.084 39.95V43.5147C227.084 45.1075 226.477 45.9418 225.339 45.9418C224.732 45.9418 223.746 45.6384 222.457 45.0317C218.134 43.0597 213.28 42.0737 207.895 42.0737C203.571 42.0737 200.158 42.7563 197.807 44.1973C195.456 45.6384 194.242 47.8379 194.242 50.9476C194.242 53.0713 195.001 54.8916 196.518 56.3327C198.035 57.7738 200.841 59.2148 204.861 60.5042L215.631 63.9173C221.092 65.6617 225.036 68.0888 227.387 71.1985C229.738 74.3082 230.876 77.8729 230.876 81.8169C230.876 85.0783 230.193 88.0363 228.904 90.615C227.539 93.1938 225.718 95.4691 223.367 97.2895C221.016 99.1856 218.21 100.551 214.948 101.537C211.535 102.599 207.971 103.13 204.102 103.13Z" fill="black"/>
<path fill-rule="evenodd" clip-rule="evenodd" d="M218.437 139.989C193.484 158.42 157.23 168.204 126.057 168.204C82.3698 168.204 43.0058 152.049 13.2742 125.199C10.923 123.076 13.0467 120.194 15.853 121.862C48.0116 140.52 87.679 151.821 128.712 151.821C156.395 151.821 186.81 146.057 214.797 134.225C218.968 132.329 222.533 136.955 218.437 139.989Z" fill="black"/>
<path fill-rule="evenodd" clip-rule="evenodd" d="M228.827 128.157C225.642 124.061 207.742 126.185 199.627 127.171C197.2 127.474 196.821 125.351 199.02 123.758C213.279 113.746 236.715 116.628 239.446 119.966C242.176 123.379 238.687 146.815 225.339 158.04C223.291 159.785 221.319 158.875 222.229 156.599C225.263 149.09 232.013 132.177 228.827 128.157Z" fill="black"/>
</svg>
