<svg width="400" height="200" viewBox="0 0 400 200" fill="none" xmlns="http://www.w3.org/2000/svg">
<path fill-rule="evenodd" clip-rule="evenodd" d="M91.4994 35.9712C90.5698 35.9712 89.7067 36.1704 88.9099 36.436C90.603 37.5647 91.5326 39.0586 91.9973 40.7517C92.0306 40.9841 92.0969 41.1501 92.1302 41.3825C92.1634 41.5817 92.1965 41.7808 92.1965 41.98C92.3294 44.9015 91.433 45.2666 90.8022 46.9929C89.8395 49.2172 90.105 51.6075 91.267 53.533C91.3666 53.7653 91.4994 54.0309 91.6654 54.2633C90.4038 45.8642 97.4086 44.6027 98.7033 41.98C98.8029 39.6894 96.9106 38.1623 95.4167 37.0999C93.9892 36.2368 92.6945 35.9712 91.4994 35.9712ZM102.056 37.8635C101.923 38.627 102.023 38.4278 101.99 38.8262C101.957 39.0918 101.957 39.4238 101.924 39.6894C101.857 39.955 101.791 40.2205 101.691 40.4861C101.625 40.7517 101.525 41.0173 101.426 41.2829C101.293 41.5485 101.193 41.7808 101.061 42.0464C100.961 42.1793 100.895 42.312 100.795 42.4448C100.729 42.5444 100.662 42.644 100.596 42.7436C100.43 42.976 100.264 43.2084 100.098 43.4075C99.8986 43.6067 99.7326 43.8391 99.5002 44.0051V44.0384C99.301 44.2044 99.1018 44.4035 98.8694 44.5695C98.1723 45.1007 97.3755 45.4991 96.6452 45.997C96.4128 46.163 96.1804 46.2958 95.9812 46.495C95.7488 46.661 95.5496 46.827 95.3504 47.0262C95.118 47.2254 94.9521 47.4246 94.7529 47.6569C94.5869 47.8561 94.3877 48.0885 94.2549 48.3209C94.0889 48.5533 93.9229 48.7857 93.7901 49.0181C93.6573 49.2836 93.5577 49.516 93.4249 49.7816C93.3254 50.0472 93.2258 50.2796 93.1594 50.5452C93.0598 50.844 92.9934 51.1095 92.927 51.3751C92.8937 51.508 92.8937 51.6739 92.8606 51.8067C92.8274 51.9395 92.8274 52.0723 92.7943 52.2051C92.7943 52.4707 92.761 52.7694 92.761 53.035C92.761 53.2342 92.761 53.4334 92.7943 53.6326C92.7943 53.8982 92.8275 54.1638 92.8939 54.4625C92.9271 54.7281 92.9935 54.9937 93.0599 55.2593C93.1595 55.5249 93.2259 55.7905 93.3255 56.056C93.3918 56.222 93.4914 56.388 93.5579 56.5208L85.9223 53.5662C84.6276 53.201 83.3661 52.869 82.0713 52.5703C81.3742 52.4043 80.677 52.2383 79.9799 52.0723C77.988 51.6739 75.9629 51.3751 73.9378 51.1759C73.8715 51.1759 73.8382 51.1427 73.7718 51.1427C71.7799 50.9435 69.8213 50.8439 67.8294 50.8439C66.3687 50.8439 64.9079 50.9103 63.4804 51.0099C61.4553 51.1427 59.4303 51.4083 57.4052 51.7403C56.9072 51.8066 56.4092 51.9063 55.9113 52.0058C54.8821 52.205 53.8862 52.4374 52.9235 52.6698C52.4255 52.8027 51.9275 52.9354 51.4295 53.0682C50.9316 53.2674 50.4668 53.4998 50.002 53.6989C49.6368 53.8649 49.2717 54.0309 48.9065 54.1969C48.8401 54.2302 48.7736 54.2302 48.7405 54.2633C48.4085 54.4293 48.1097 54.562 47.811 54.728C47.7114 54.7613 47.645 54.7944 47.5786 54.8276C47.2134 54.9936 46.8482 55.1928 46.5494 55.3588C46.317 55.4584 46.0847 55.5912 45.8855 55.6908C45.7859 55.7571 45.6531 55.8236 45.5867 55.8568C45.2879 56.0228 44.9891 56.1887 44.7235 56.3547C44.4248 56.5207 44.1592 56.6867 43.9268 56.8527C43.6944 57.0187 43.462 57.1515 43.2628 57.3175C43.2296 57.3507 43.1965 57.3507 43.1632 57.3838C42.964 57.5167 42.7317 57.6826 42.5325 57.8486C42.5325 57.8486 42.4992 57.8819 42.4661 57.9149C42.3001 58.0478 42.1341 58.1805 41.9681 58.3133C41.9018 58.3466 41.8353 58.4129 41.769 58.4462C41.603 58.579 41.437 58.7449 41.271 58.8777C41.2377 58.9441 41.1714 58.9773 41.1382 59.0106C40.939 59.2098 40.7398 59.3758 40.5406 59.5749C40.5073 59.5749 40.5073 59.6082 40.4742 59.6413C40.2751 59.8073 40.0759 60.0065 39.8767 60.2057C39.8434 60.2389 39.8434 60.272 39.8103 60.272C39.6443 60.438 39.4784 60.604 39.3124 60.8032C39.246 60.8695 39.1464 60.936 39.08 61.0024C38.914 61.2015 38.7148 61.4007 38.5156 61.5999C38.4824 61.6663 38.416 61.6995 38.3828 61.7659C38.1172 62.0315 37.8848 62.2971 37.6192 62.5627C37.586 62.5959 37.5529 62.629 37.5196 62.6623C36.9884 63.2266 36.4241 63.791 35.8265 64.289C35.229 64.8201 34.5982 65.3181 33.9674 65.7497C33.3035 66.2145 32.6727 66.6128 31.9755 67.0112C31.3116 67.3764 30.6144 67.7084 29.8841 68.0071C29.1869 68.3059 28.4566 68.5715 27.7262 68.8039C26.3319 69.1027 24.9044 69.667 23.676 69.7666C23.4105 69.7666 23.1117 69.833 22.8461 69.8662C22.5473 69.9326 22.2817 69.9991 22.0161 70.0654C21.7506 70.165 21.485 70.2646 21.2194 70.3642C20.9538 70.4638 20.6882 70.5966 20.4226 70.7294C20.1902 70.8954 19.9247 71.0282 19.6923 71.1941C19.4599 71.3601 19.2275 71.5593 19.0283 71.7585C18.7959 71.9245 18.5635 72.1569 18.3643 72.3561C18.1652 72.5885 17.966 72.7877 17.8 73.02C17.634 73.2856 17.4348 73.518 17.302 73.7836C17.136 74.016 16.97 74.2816 16.8372 74.5471C16.7044 74.8459 16.5717 75.1115 16.4721 75.4103C16.3725 75.6759 16.2729 75.9747 16.1733 76.2734C16.1069 76.539 16.0404 76.8046 16.0073 77.0702C16.0073 77.1034 15.974 77.1365 15.974 77.1698C15.9077 77.4686 15.9077 77.867 15.8744 78.0662C15.8412 78.2985 15.8081 78.4977 15.8081 78.7301C15.8081 78.863 15.8081 79.0289 15.8414 79.1617C15.8746 79.3941 15.9077 79.5933 15.9742 79.7925C16.0405 79.9916 16.107 80.1908 16.2066 80.39V80.4233C16.3062 80.6225 16.439 80.8216 16.5718 81.0208C16.7046 81.22 16.8373 81.4192 17.0033 81.6184C17.1693 81.7844 17.3685 81.9836 17.5677 82.1496C17.7669 82.3488 17.9661 82.5147 18.1985 82.6807C18.9952 83.3779 19.1944 83.6103 20.2235 84.1414C20.3895 84.241 20.5555 84.3074 20.7547 84.407C20.788 84.407 20.8211 84.4403 20.8543 84.4403C20.8543 84.5066 20.8543 84.5399 20.8876 84.6063C20.9208 84.8719 20.9872 85.1374 21.0535 85.403C21.1199 85.7018 21.2196 85.9674 21.3191 86.1998C21.4187 86.399 21.4851 86.5982 21.5847 86.7974C21.618 86.8637 21.6511 86.9302 21.6843 86.9634C21.8172 87.2289 21.9499 87.4613 22.0827 87.6937C22.2487 87.9261 22.4147 88.1585 22.5807 88.3909C22.7466 88.59 22.9458 88.8224 23.145 89.0216C23.3442 89.2208 23.5434 89.3868 23.7758 89.586C23.7758 89.586 23.8091 89.6192 23.8421 89.6192C24.0413 89.7852 24.2405 89.9512 24.4397 90.084C24.6721 90.25 24.9045 90.3828 25.1701 90.5156C25.4025 90.6484 25.668 90.7812 25.9336 90.8808C26.1328 90.9804 26.3652 91.0468 26.5976 91.1132C26.6308 91.1464 26.6639 91.1464 26.7304 91.1795C26.8633 91.2128 27.0292 91.2458 27.162 91.2791C27.0624 93.0718 27.0291 94.7649 27.2948 95.3625C27.5936 96.0264 29.0543 94.0013 30.515 91.6775C30.3159 93.9681 30.1831 96.6572 30.515 97.4539C30.8802 98.2839 32.8721 95.6944 34.5984 92.8394C58.1358 87.3949 79.6149 103.662 81.8724 126.635C81.4408 123.05 77.0255 121.058 75.0004 121.556C74.0045 124.012 72.3114 127.166 69.5891 129.125C69.8215 126.934 69.722 124.676 69.2572 122.485C68.5268 125.539 67.0993 128.395 65.1406 130.851C61.9868 131.084 58.833 129.556 57.173 127.266C57.0402 127.166 57.0071 126.967 56.9075 126.834C56.8079 126.602 56.7083 126.369 56.6419 126.137C56.5423 125.905 56.4759 125.672 56.4427 125.44C56.4094 125.207 56.4094 124.975 56.4094 124.71C56.4094 124.544 56.4094 124.378 56.4094 124.212C56.4427 123.979 56.509 123.747 56.5754 123.514C56.6418 123.282 56.7083 123.05 56.8078 122.817C56.9407 122.585 57.0402 122.352 57.2062 122.12C57.7706 120.527 57.7706 119.232 56.7414 118.468C56.5422 118.335 56.3431 118.236 56.1107 118.136C55.9778 118.103 55.8119 118.037 55.6791 118.003C55.5795 117.97 55.5131 117.937 55.4135 117.904C55.1811 117.838 54.9487 117.771 54.7163 117.738C54.484 117.672 54.2516 117.638 54.0192 117.638C53.7868 117.605 53.5212 117.572 53.2888 117.572C53.1228 117.572 52.9568 117.605 52.7909 117.605C52.5253 117.605 52.2929 117.638 52.0605 117.705C51.8281 117.738 51.5957 117.771 51.3633 117.838C51.131 117.904 50.8986 117.97 50.6662 118.07C50.4338 118.17 50.2346 118.269 50.0022 118.369C49.803 118.468 49.6038 118.601 49.3715 118.701C41.6363 123.747 46.2508 135.565 51.5293 138.985C49.5374 139.35 47.5124 139.782 46.948 140.213C46.9148 140.246 46.8817 140.279 46.8817 140.279C48.3092 141.143 49.8031 141.873 51.3634 142.504C53.4881 143.201 55.7455 143.832 56.7415 144.097V144.13C59.4969 144.695 62.2856 144.894 65.1074 144.728C79.8141 143.699 91.865 132.511 94.0561 117.771C94.1224 118.07 94.1889 118.336 94.2553 118.634C94.3549 119.232 94.4877 119.863 94.554 120.493V120.527C94.6204 120.825 94.6536 121.124 94.6869 121.39V121.523C94.7201 121.821 94.7532 122.12 94.7532 122.386C94.7865 122.751 94.8196 123.116 94.8196 123.481V124.013C94.8196 124.179 94.8528 124.378 94.8528 124.544C94.8528 124.743 94.8196 124.942 94.8196 125.141V125.606C94.8196 125.838 94.7863 126.038 94.7863 126.27C94.7863 126.403 94.7863 126.536 94.7531 126.702C94.7531 126.934 94.7198 127.166 94.7198 127.432C94.6866 127.532 94.6866 127.631 94.6866 127.731C94.6533 127.996 94.6202 128.229 94.587 128.494C94.587 128.594 94.587 128.693 94.5537 128.793C94.5204 129.125 94.4541 129.424 94.4209 129.756V129.789V129.822C94.3545 130.121 94.288 130.453 94.2217 130.752V130.851C94.1553 131.15 94.0888 131.449 94.0225 131.748C94.0225 131.781 93.9892 131.847 93.9892 131.881C93.9229 132.179 93.8564 132.478 93.7569 132.777V132.877C93.6573 133.209 93.5577 133.507 93.4913 133.806C93.458 133.839 93.458 133.872 93.458 133.872C93.3584 134.204 93.2588 134.536 93.1592 134.868C93.0264 135.2 92.9269 135.499 92.7941 135.831C92.6612 136.163 92.5617 136.495 92.4289 136.794C92.296 137.126 92.1633 137.425 92.0305 137.757H91.9973C91.8644 138.055 91.7317 138.387 91.5657 138.686C91.5324 138.786 91.4993 138.852 91.4661 138.919C91.4328 138.952 91.4328 138.985 91.3997 139.018C89.2419 143.367 86.0548 147.185 82.0711 150.173C81.8055 150.339 81.5399 150.538 81.2743 150.737C81.208 150.803 81.1083 150.837 81.0419 150.903C80.8096 151.069 80.5772 151.235 80.3116 151.401L80.4112 151.6H80.4444C80.9092 151.534 81.374 151.467 81.8388 151.401H81.872C82.7352 151.268 83.5983 151.102 84.4615 150.936C84.6938 150.903 84.9594 150.837 85.1918 150.77C85.3578 150.737 85.4906 150.704 85.6566 150.671C85.889 150.637 86.1214 150.571 86.3537 150.538C86.5529 150.471 86.7521 150.438 86.9513 150.372C90.2711 149.575 93.4913 148.48 96.5787 147.185C91.3002 154.389 84.2291 160.198 75.9628 164.016C79.7805 163.751 83.5983 163.12 87.2833 162.058C100.662 158.107 111.916 149.11 118.655 136.993C117.294 144.662 114.24 151.965 109.725 158.339C112.945 156.215 115.9 153.758 118.589 150.969C126.025 143.201 130.906 133.341 132.565 122.751C133.694 127.996 134.026 133.408 133.528 138.753C157.497 105.322 135.52 70.6634 126.324 61.5339C126.291 61.4676 126.258 61.4343 126.258 61.3679C126.225 61.4012 126.225 61.4012 126.225 61.4343C126.225 61.401 126.225 61.401 126.191 61.3679C126.191 61.7663 126.158 62.1647 126.125 62.5631C126.025 63.3266 125.926 64.057 125.793 64.7873C125.627 65.5177 125.428 66.248 125.229 66.9784C124.996 67.6756 124.731 68.4059 124.432 69.1031C124.133 69.767 123.801 70.4642 123.436 71.1282C123.071 71.7589 122.672 72.4229 122.241 73.0204C121.809 73.6512 121.344 74.2488 120.88 74.8131C120.382 75.4107 119.851 75.9419 119.319 76.473C118.987 76.7718 118.689 77.0374 118.357 77.303C118.091 77.5354 117.859 77.7346 117.593 77.9669C116.996 78.4317 116.398 78.8633 115.734 79.2617C115.103 79.66 114.439 80.0584 113.775 80.3904C113.078 80.7224 112.381 81.0212 111.684 81.3199C110.987 81.5855 110.256 81.8179 109.526 82.0171C108.796 82.2163 108.032 82.3823 107.302 82.5151C106.538 82.6479 105.775 82.7143 105.044 82.7807C104.513 82.8139 103.982 82.847 103.451 82.847C102.687 82.847 101.924 82.7807 101.193 82.7142C100.43 82.6478 99.6661 82.5481 98.9358 82.3822C98.1722 82.2493 97.4419 82.0502 96.7115 81.8178H96.6783C97.4086 81.7515 98.139 81.685 98.8693 81.5522C99.6329 81.4194 100.363 81.2534 101.094 81.0542C101.824 80.8551 102.554 80.6227 103.251 80.3571C103.982 80.0915 104.679 79.7595 105.343 79.4275C106.04 79.0956 106.671 78.7304 107.335 78.332C107.966 77.9004 108.596 77.4689 109.194 77.0041C109.791 76.5393 110.356 76.0414 110.887 75.5102C111.451 75.0122 111.949 74.4478 112.447 73.8835C112.945 73.2859 113.41 72.6884 113.842 72.0908C113.908 71.9912 113.974 71.8584 114.041 71.7588C114.373 71.2276 114.705 70.6965 115.004 70.1653C115.369 69.5013 115.701 68.8374 116 68.1402C116.298 67.4431 116.564 66.7459 116.796 66.0156C117.029 65.3184 117.195 64.588 117.361 63.8577C117.493 63.0941 117.626 62.3638 117.693 61.6334C117.759 60.8699 117.825 60.1063 117.825 59.3759C117.825 58.8448 117.792 58.3136 117.759 57.7824C117.693 57.0189 117.593 56.2885 117.494 55.5582C117.361 54.7946 117.195 54.0643 116.996 53.3339C116.763 52.6368 116.531 51.9064 116.265 51.2092C116 50.5121 115.668 49.8149 115.336 49.151C114.97 48.487 114.605 47.823 114.207 47.1923C113.775 46.5615 113.344 45.964 112.879 45.3664C112.381 44.802 111.883 44.2376 111.352 43.6733C111.086 43.4077 110.788 43.1089 110.489 42.8433C108.995 41.6814 107.435 40.5859 105.874 39.5899C105.642 39.4571 105.443 39.3575 105.21 39.2579C104.115 38.5608 103.085 38.1954 102.056 37.8635Z" fill="black"/>
<path d="M175.014 122.495C175.99 122.036 176.908 121.748 177.769 121.576C179.894 121.232 181.099 120.945 181.444 120.715C182.018 120.371 182.42 119.911 182.592 119.452C182.822 118.648 182.937 116.983 182.937 114.342V109.347L182.994 105.271L182.822 99.1851V95.5681C182.822 93.1567 182.65 91.1472 182.248 89.6545C182.133 89.0804 181.616 88.5062 180.812 87.9321C179.722 87.1283 177.942 86.382 175.358 85.6356L175.301 82.8797C175.76 82.765 176.219 82.65 176.621 82.5927C177.023 82.5352 178.573 82.1334 181.272 81.4444C183.396 80.6981 184.774 80.1239 185.348 79.8368C185.578 79.7221 185.865 79.5498 186.324 79.3201C186.783 78.9183 187.3 78.5738 187.874 78.1719C189.022 77.3681 190.4 75.9328 192.008 73.9807L195.051 73.751L194.936 80.2387C194.879 80.8702 194.879 81.3869 194.879 81.7888C194.879 82.1333 194.879 82.9945 194.936 84.4298C198.151 81.674 201.022 79.7793 203.663 78.6885C207.05 77.2532 210.323 76.5642 213.366 76.5642C216.983 76.5642 220.198 77.4828 222.896 79.2626C225.652 81.0424 227.432 83.1093 228.236 85.4058C229.097 87.7598 229.499 92.5251 229.499 99.5869L229.269 118.418C229.269 119.28 229.441 120.026 229.728 120.6C230.13 120.887 231.221 121.174 232.944 121.461L235.757 121.978C236.101 122.495 236.274 123.069 236.274 123.815C236.274 124.275 236.274 124.906 236.216 125.71L224.906 124.906L221.576 125.021H218.935L211.299 125.595H209.347C209.289 125.078 209.289 124.734 209.289 124.447C209.289 123.758 209.347 123.011 209.404 122.208C209.921 122.093 211.298 121.921 213.423 121.633C213.997 121.576 214.628 121.404 215.375 121.232C216.121 120.944 216.58 120.6 216.695 120.313C216.982 119.624 217.155 118.418 217.155 116.581C217.155 113.309 217.097 110.84 217.04 109.117L217.097 102.457C217.097 94.3048 216.638 89.2524 215.605 87.3004C214.112 84.3723 211.93 82.937 209.002 82.937C206.878 82.937 204.639 83.5111 202.342 84.602C199.988 85.6928 197.634 87.3578 195.166 89.5969L195.051 90.5729L195.166 94.19L195.108 98.0367L195.338 107.28L195.223 108.716C195.223 114.974 195.453 118.533 195.969 119.337C196.486 120.141 198.381 121.002 201.711 121.978C201.826 122.609 201.883 123.126 201.883 123.413C201.883 123.873 201.711 124.562 201.481 125.538C200.275 125.595 199.242 125.595 198.438 125.595C197.634 125.595 196.371 125.48 194.649 125.251L188.506 125.136C185.405 125.136 180.985 125.251 175.186 125.538C175.014 125.136 174.956 124.734 174.956 124.332C174.956 124.045 174.956 123.413 175.014 122.495Z" fill="black"/>
<path d="M242.818 94.8791C243.851 91.6066 244.712 89.4249 245.516 88.3914C247.641 85.2337 249.937 82.765 252.348 80.9851C254.817 79.2053 256.999 78.0571 258.951 77.4829C261.535 76.7366 263.544 76.3921 265.152 76.3921C268.769 76.3921 271.697 76.6792 273.878 77.2533C276.117 77.77 278.012 78.5738 279.505 79.6072C281.629 81.1 283.352 82.6501 284.672 84.1429C285.993 85.693 287.026 87.5302 287.83 89.5971C288.691 91.664 289.15 94.1902 289.265 97.1183L282.835 97.0035C281.055 97.0035 277.208 96.8313 271.18 96.4868C268.941 96.3721 267.448 96.257 266.587 96.257C266.3 96.257 264.233 96.3146 260.386 96.3146H255.391C255.334 96.8887 255.277 97.348 255.277 97.6925C255.277 99.7593 255.564 101.884 256.023 104.18C256.54 106.419 257.286 108.371 258.262 110.094C259.296 111.816 260.501 113.251 261.994 114.457C263.487 115.72 265.037 116.581 266.587 117.156L269.917 118.246C272.902 118.246 274.854 118.132 275.888 117.959C277.725 117.557 279.333 117.098 280.711 116.524C282.146 115.892 283.811 114.859 285.82 113.424C287.198 114.457 288.347 115.318 289.323 116.18C285.935 119.854 282.376 122.61 278.759 124.275C275.142 125.94 271.065 126.744 266.587 126.744C263.544 126.744 261.075 126.514 259.123 125.94C256.597 125.251 254.243 124.217 252.176 122.782C250.109 121.347 248.33 119.567 246.837 117.5C245.344 115.376 244.196 113.194 243.449 110.955C242.531 108.027 242.014 105.673 242.014 103.95C242.014 100.563 242.301 97.5776 242.818 94.8791ZM276.347 92.4104C276.29 90.2287 275.888 88.2192 275.084 86.2097C274.28 84.2577 273.017 82.765 271.295 81.6741C269.63 80.5832 267.907 80.0091 266.185 80.0091C263.601 80.0091 261.305 81.1574 259.181 83.3965C257.114 85.693 255.965 88.7359 255.678 92.64L268.826 92.6975C269.687 92.6975 270.893 92.64 272.386 92.5253C273.534 92.4106 274.338 92.353 274.797 92.353C275.141 92.353 275.658 92.3529 276.347 92.4104Z" fill="black"/>
<path d="M298.393 109.29C299.542 109.06 300.403 108.945 300.92 108.945C301.207 108.945 301.608 108.945 302.125 109.003L302.642 109.577C304.766 113.251 306.087 115.433 306.776 116.237C308.096 117.787 309.417 119.05 310.737 120.026C311.598 120.6 312.976 121.289 314.871 121.921C316.134 122.38 317.512 122.61 318.947 122.61C321.359 122.61 323.425 121.863 325.148 120.313C326.87 118.706 327.731 117.041 327.731 115.203C327.731 113.998 327.387 112.964 326.755 112.103C326.124 111.242 324.803 110.381 322.851 109.519C321.875 109.118 319.464 108.429 315.56 107.453C311.713 106.477 309.417 105.845 308.613 105.558C306.776 104.869 305.168 103.893 303.79 102.687C302.355 101.424 301.321 100.046 300.575 98.4961C299.599 96.3144 299.082 94.4198 299.082 92.8696C299.082 89.9415 299.542 87.5876 300.345 85.693C301.207 83.8557 302.412 82.1908 303.962 80.7554C305.053 79.6646 306.718 78.6886 308.957 77.8274C311.196 76.9662 313.665 76.5068 316.191 76.5068C319.866 76.5068 323.081 76.7366 325.837 77.2532C328.593 77.7699 330.947 78.5163 332.841 79.4923C333.128 80.3535 333.415 82.4204 333.875 85.5781C334.277 88.7933 334.506 90.6879 334.506 91.262C334.506 91.5491 334.449 91.8362 334.334 92.1232C333.301 92.4103 332.497 92.5825 331.808 92.5825C331.463 92.5825 330.889 92.525 330.143 92.4678C329.798 91.9511 329.339 91.0899 328.765 90.0564C326.928 86.6116 325.033 84.2003 323.081 82.8224C321.129 81.387 318.947 80.6981 316.364 80.6981C313.723 80.6981 311.484 81.5019 309.704 82.9946C308.383 84.1429 307.752 85.6356 307.752 87.5877C307.752 88.8507 308.441 90.1139 309.819 91.4344C311.139 92.7549 313.493 93.7883 316.823 94.4773C321.875 95.5681 325.607 96.7164 327.961 97.8072C331.406 99.4148 333.875 101.367 335.253 103.549C336.631 105.73 337.377 108.256 337.377 111.127C337.377 115.605 335.654 119.337 332.267 122.323C328.937 125.251 324.057 126.743 317.569 126.743C316.766 126.743 314.526 126.571 310.967 126.169C309.359 125.997 307.465 125.595 305.283 125.021C304.709 124.849 303.331 124.332 301.034 123.356C300.632 123.126 300.345 122.839 300.116 122.552C300.001 122.208 299.714 120.6 299.369 117.73C298.795 113.022 298.451 110.208 298.393 109.29Z" fill="black"/>
<path d="M345.703 81.7312C350.239 79.8366 353.512 77.9419 355.521 76.1047C357.588 74.2675 359.712 71.2246 362.009 67.0908H365.281C365.626 68.1243 365.798 69.1577 365.798 70.2486C365.798 72.258 365.74 73.8082 365.74 74.9564L365.568 78.3438C365.568 78.5161 365.568 78.9754 365.626 79.6643L366.946 79.7218C367.118 79.7218 368.956 79.6643 372.343 79.4921C372.63 79.4921 374.065 79.4346 376.649 79.3774C376.879 80.4108 377.051 81.3294 377.051 82.1332C377.051 83.0518 376.879 84.0852 376.592 85.2335C375.329 85.4057 374.41 85.4632 373.721 85.4632C373.434 85.4632 372.802 85.4632 371.884 85.3485H368.898L367.865 85.291L365.109 85.4057L364.994 107.452C364.937 111.701 364.994 114.399 365.224 115.433C365.454 116.524 365.913 117.5 366.602 118.476C367.463 118.878 368.439 119.107 369.53 119.107C370.563 119.107 371.31 118.993 371.826 118.82C372.343 118.59 373.204 118.074 374.353 117.155C374.582 116.925 374.984 116.696 375.444 116.351C376.362 117.04 377.166 117.787 377.74 118.533L377.97 119.222C376.592 121.346 374.697 123.011 372.228 124.217C369.817 125.423 367.234 125.997 364.478 125.997C360.861 125.997 357.99 124.849 355.751 122.609C353.512 120.313 352.421 116.811 352.421 112.045L352.651 101.941V85.4631L350.871 85.4056L346.68 85.4631L345.933 85.2909C345.704 84.9464 345.589 84.6594 345.589 84.3149C345.589 84.0851 345.646 83.2239 345.703 81.7312Z" fill="black"/>
</svg>
