<svg width="16" height="16" viewBox="0 0 16 16" fill="none" xmlns="http://www.w3.org/2000/svg">
<path d="M3.464 12.154C3.07533 12.154 2.727 12.088 2.419 11.956C2.111 11.8167 1.86533 11.6187 1.682 11.362C1.506 11.098 1.418 10.779 1.418 10.405C1.418 10.031 1.506 9.71933 1.682 9.47C1.86533 9.21333 2.11467 9.02267 2.43 8.898C2.75267 8.766 3.11933 8.7 3.53 8.7H5.026V8.392C5.026 8.13533 4.94533 7.92633 4.784 7.765C4.62267 7.59633 4.366 7.512 4.014 7.512C3.66933 7.512 3.41267 7.59267 3.244 7.754C3.07533 7.908 2.96533 8.10967 2.914 8.359L1.638 7.93C1.726 7.65133 1.86533 7.39833 2.056 7.171C2.254 6.93633 2.51433 6.74933 2.837 6.61C3.167 6.46333 3.56667 6.39 4.036 6.39C4.75467 6.39 5.323 6.56967 5.741 6.929C6.159 7.28833 6.368 7.809 6.368 8.491V10.526C6.368 10.746 6.47067 10.856 6.676 10.856H7.116V12H6.192C5.92067 12 5.697 11.934 5.521 11.802C5.345 11.67 5.257 11.494 5.257 11.274V11.263H5.048C5.01867 11.351 4.95267 11.4683 4.85 11.615C4.74733 11.7543 4.586 11.879 4.366 11.989C4.146 12.099 3.84533 12.154 3.464 12.154ZM3.706 11.032C4.09467 11.032 4.41 10.9257 4.652 10.713C4.90133 10.493 5.026 10.2033 5.026 9.844V9.734H3.629C3.37233 9.734 3.17067 9.789 3.024 9.899C2.87733 10.009 2.804 10.163 2.804 10.361C2.804 10.559 2.881 10.7203 3.035 10.845C3.189 10.9697 3.41267 11.032 3.706 11.032ZM11.4074 12.154C10.916 12.154 10.5384 12.0697 10.2744 11.901C10.0104 11.7323 9.81604 11.5453 9.69138 11.34H9.49338V12H8.12938V4.3H9.51538V7.171H9.71338C9.79404 7.039 9.90038 6.91433 10.0324 6.797C10.1717 6.67967 10.3514 6.58433 10.5714 6.511C10.7987 6.43033 11.0774 6.39 11.4074 6.39C11.8474 6.39 12.2544 6.5 12.6284 6.72C13.0024 6.93267 13.303 7.248 13.5304 7.666C13.7577 8.084 13.8714 8.59 13.8714 9.184V9.36C13.8714 9.954 13.7577 10.46 13.5304 10.878C13.303 11.296 13.0024 11.615 12.6284 11.835C12.2544 12.0477 11.8474 12.154 11.4074 12.154ZM10.9894 10.944C11.4147 10.944 11.7704 10.8083 12.0564 10.537C12.3424 10.2583 12.4854 9.855 12.4854 9.327V9.217C12.4854 8.689 12.3424 8.28933 12.0564 8.018C11.7777 7.73933 11.422 7.6 10.9894 7.6C10.564 7.6 10.2084 7.73933 9.92238 8.018C9.63638 8.28933 9.49338 8.689 9.49338 9.217V9.327C9.49338 9.855 9.63638 10.2583 9.92238 10.537C10.2084 10.8083 10.564 10.944 10.9894 10.944Z" fill="white"/>
</svg>
